# xmcd
#
# Track frame offsets:
#	150
#	22019
#	42899
#	65942
#	84547
#	104994
#	126520
#	144441
#
# Disc length: 2164 seconds
#
# Revision: 1
# Processed by: cddbd v1.5.1PL2 Copyright (c) Steve Scherf et al.
# Submitted via: audiograbber 1.83.01
#
DISCID=7c087208
DTITLE=Various Artist - Country Rythem 1
DYEAR=2005
DGENRE=Country Remix
TTITLE0=Toby Keith - As Good As I Once Was (CR)
TTITLE1=Hillbillies - Hot Apple Pie (CR)
TTITLE2=Alan Jackson - Where I Come From (CR)
TTITLE3=Neal McCoy - Beer Goggles (CR)
TTITLE4=Trace Adkins - Honkey Tonk Badunkadunk (CR)
TTITLE5=Shania Twain - Man, I Feel Like A Woman (CR)
TTITLE6=Sammy Kershaw - She Don't Know (CR)
TTITLE7=Alan Jackson - Who's Cheatin' Who? (CR)
EXTD=
EXTT0=
EXTT1=
EXTT2=
EXTT3=
EXTT4=
EXTT5=
EXTT6=
EXTT7=
PLAYORDER=
